<svg id="Capa_1" enable-background="new 0 0 512 512" height="512" viewBox="0 0 512 512" width="512" xmlns="http://www.w3.org/2000/svg"><g><g><path d="m437.02 74.957c-48.353-48.336-112.64-74.957-181.02-74.957s-132.667 26.621-181.02 74.957c-48.351 48.337-74.98 112.605-74.98 180.964 0 42.981 10.817 85.292 31.335 122.767l-31.335 133.312 283.719-235.766 153.312-201.265c-.004-.004-.008-.008-.011-.012z" fill="#fc612a"/><path d="m0 512 136.359-29.794c36.68 19.405 77.916 29.635 119.641 29.635 68.38 0 132.667-26.621 181.02-74.957 48.351-48.337 74.98-112.605 74.98-180.963 0-68.353-26.625-132.616-74.969-180.952z" fill="#eb3d1d"/></g><g><g><path d="m242.732 209.487h-80v-91.015l20.017-30.226h59.983z" fill="#fdd741"/></g><g><path d="m390.121 347.699h-88.872v-79.972h121.133v59.984z" fill="#fbba30"/></g></g><g><path d="m182.749 204.234v-115.988h-20.939l-59.061 59.043v50.913c0 58.147 23.829 110.83 62.228 148.822l52.966-1.55 1.798-53.214c-22.817-22.417-36.992-53.595-36.992-88.026z" fill="#fbba30"/><path d="m219.74 292.26-54.764 54.764c37.88 37.478 89.94 60.66 147.319 60.66h51.025l59.056-59.043v-20.929h-116.111c-33.666-.001-64.223-13.541-86.525-35.452z" fill="#fc8b27"/></g></g></svg>